<?xml version="1.0" standalone="no"?>
<!DOCTYPE svg PUBLIC "-//W3C//DTD SVG 20010904//EN"
 "http://www.w3.org/TR/2001/REC-SVG-20010904/DTD/svg10.dtd">
<svg version="1.0" xmlns="http://www.w3.org/2000/svg"
 width="1200.000000pt" height="600.000000pt" viewBox="0 0 1200.000000 600.000000"
 preserveAspectRatio="xMidYMid meet">
<metadata>
Created by potrace 1.16, written by Peter Selinger 2001-2019
</metadata>
<g transform="translate(0.000000,600.000000) scale(0.100000,-0.100000)"
fill="#1E262E" stroke="none">
<path d="M378 5803 c105 -109 226 -233 270 -276 123 -122 141 -102 -288 -327
-232 -121 -356 -191 -358 -203 -3 -13 12 -9 70 22 40 22 203 107 362 190 262
137 291 150 306 136 9 -8 30 -15 46 -15 28 0 40 -19 307 -495 153 -273 276
-499 273 -504 -3 -4 -310 90 -683 209 -587 188 -709 223 -679 193 5 -5 874
-286 1234 -399 105 -33 112 -37 112 -61 0 -15 7 -34 15 -43 14 -16 -10 -88
-273 -801 -181 -492 -294 -785 -303 -787 -10 -1 -136 250 -399 798 -264 549
-386 792 -388 775 -2 -16 122 -284 367 -792 203 -423 371 -774 373 -782 2 -8
-4 -16 -13 -18 -9 -2 -166 45 -350 105 -184 60 -344 112 -356 116 -16 5 -23 3
-23 -7 0 -9 113 -50 350 -127 192 -63 348 -115 347 -117 -2 -1 -126 -7 -277
-13 -354 -13 -420 -19 -420 -33 0 -9 68 -9 282 0 156 6 317 12 359 12 73 1 77
0 83 -23 5 -20 -60 -128 -360 -595 -237 -371 -364 -578 -362 -591 2 -14 125
170 377 564 l375 584 43 4 43 3 383 -385 c360 -361 383 -387 378 -414 -6 -27
-56 -53 -801 -420 -554 -273 -796 -397 -798 -409 -3 -13 46 7 195 81 109 55
470 233 802 397 585 287 604 296 622 278 18 -17 13 -41 -140 -723 -138 -616
-160 -705 -177 -709 -10 -1 -26 -9 -34 -16 -12 -10 -123 20 -635 171 -341 101
-623 184 -627 184 -5 0 -8 -6 -8 -12 0 -8 231 -81 624 -197 l624 -184 5 -40
c5 -33 1 -46 -20 -74 -23 -30 -24 -33 -7 -33 11 0 28 14 39 30 26 39 45 39 45
0 0 -20 5 -30 15 -30 10 0 15 10 15 28 0 17 8 32 21 40 18 12 30 8 100 -28 44
-23 90 -40 102 -38 16 2 -3 16 -71 51 -82 43 -114 69 -100 82 3 3 1804 564
1976 616 37 11 45 10 58 -3 15 -14 4 -49 -110 -373 -69 -196 -126 -361 -126
-367 0 -5 5 -8 12 -6 6 2 69 166 139 364 115 327 129 359 150 362 13 2 29 8
36 13 8 7 219 -108 671 -366 423 -241 668 -375 682 -373 14 2 -206 132 -654
388 -613 349 -676 387 -676 410 0 23 63 59 680 398 717 394 677 375 729 345 2
-1 31 -348 65 -769 44 -554 65 -769 74 -772 7 -2 12 5 12 18 0 12 -27 359 -60
772 -57 712 -59 751 -43 763 10 7 20 12 23 11 3 -2 396 -243 873 -536 709
-436 867 -537 865 -553 -2 -16 -115 -58 -657 -245 -484 -168 -646 -228 -622
-230 23 -2 222 62 658 213 528 184 627 215 638 204 12 -12 1 -46 -69 -217 -61
-148 -79 -202 -68 -200 10 2 45 74 96 200 108 264 81 263 354 20 114 -102 217
-193 229 -204 11 -11 29 -18 39 -16 12 2 -57 68 -219 213 -172 153 -237 216
-237 232 0 12 4 24 8 27 5 3 449 122 988 266 538 143 1009 269 1046 280 121
33 161 111 -405 -788 -104 -166 -141 -232 -129 -232 11 0 120 165 330 500 216
345 319 500 331 500 14 0 43 -90 161 -500 100 -348 148 -500 158 -500 8 0 11
7 8 18 -109 373 -276 965 -276 977 0 8 4 15 9 15 5 0 242 -173 527 -385 509
-379 519 -387 522 -423 2 -20 8 -42 13 -49 7 -8 0 -31 -23 -75 -18 -35 -34
-66 -36 -70 -2 -5 4 -8 12 -8 10 0 29 25 48 65 29 59 34 64 67 67 32 3 44 -4
109 -65 43 -40 81 -67 94 -67 17 0 3 17 -61 76 -72 67 -82 81 -79 107 l3 29
575 204 c437 155 579 202 590 194 8 -6 23 -13 33 -16 9 -4 17 -7 18 -8 0 0 10
-130 23 -288 12 -159 26 -291 29 -295 4 -3 10 -3 14 0 5 6 -16 335 -34 525 -5
50 -3 62 9 62 8 0 103 -90 211 -199 137 -138 197 -193 197 -179 0 13 -72 92
-192 214 -105 107 -185 194 -176 194 8 0 91 -22 184 -50 190 -56 184 -55 184
-37 0 7 -73 33 -185 66 -125 37 -185 59 -185 68 0 8 77 52 185 105 102 50 185
97 185 104 0 13 -104 -33 -289 -125 -45 -23 -87 -41 -91 -39 -5 2 79 140 186
307 124 193 194 311 192 325 -2 14 -67 -80 -206 -297 -184 -287 -206 -317
-230 -317 -25 0 -58 55 -499 849 -439 787 -472 850 -461 873 15 30 -34 27 816
60 459 17 582 25 582 35 0 17 33 17 -680 -12 -749 -31 -700 -31 -723 0 -18 25
-17 28 86 323 95 269 107 297 128 300 13 2 32 11 41 19 16 15 64 1 578 -167
308 -101 563 -180 567 -176 4 3 2 10 -3 15 -5 5 -184 66 -399 136 -789 256
-725 234 -725 259 0 12 -5 27 -11 33 -8 8 100 210 402 752 376 674 416 741
437 739 21 -3 43 -42 160 -287 96 -199 138 -277 140 -260 2 16 -44 122 -123
287 -70 145 -124 270 -121 278 8 20 19 18 136 -21 57 -19 105 -35 107 -35 2 0
3 7 3 15 0 10 -37 26 -116 50 -92 29 -115 40 -112 53 2 10 49 41 113 74 64 33
111 64 113 74 3 12 -27 0 -114 -45 -108 -56 -120 -60 -145 -49 -21 9 -29 21
-33 48 -3 19 -22 260 -42 535 -21 275 -41 504 -45 509 -5 5 -11 7 -15 3 -3 -3
13 -248 35 -543 34 -434 39 -539 29 -545 -9 -6 -33 11 -73 50 -33 32 -265 251
-515 486 -250 235 -485 457 -521 493 -43 41 -73 63 -85 60 -12 -2 153 -164
569 -557 323 -305 587 -561 587 -568 0 -9 -7 -12 -17 -10 -10 3 -438 56 -950
119 -787 95 -933 115 -933 128 0 9 -5 21 -11 27 -9 9 46 118 215 431 124 231
226 422 226 426 0 3 -6 6 -12 6 -7 0 -114 -189 -238 -420 -148 -275 -230 -419
-241 -420 -12 0 -42 93 -133 413 -65 226 -122 416 -127 421 -28 31 -11 -45 94
-409 64 -222 117 -410 117 -418 0 -8 -9 -22 -19 -31 -18 -16 -55 -10 -732 119
-393 75 -724 139 -736 142 -13 3 -23 13 -23 22 0 9 -4 21 -10 27 -6 6 52 107
160 279 96 153 165 272 158 274 -15 5 -13 7 -194 -280 l-154 -247 -41 -4 c-40
-4 -41 -3 -341 264 -189 169 -308 268 -321 268 -13 0 -17 -4 -11 -9 5 -5 144
-129 309 -276 234 -208 301 -273 303 -293 l3 -27 -788 -209 c-433 -115 -816
-217 -850 -227 -57 -16 -63 -16 -77 0 -13 15 5 65 194 526 116 281 210 511
210 513 0 1 -6 2 -14 2 -8 0 -90 -188 -222 -509 l-209 -509 -33 -4 c-31 -4
-61 20 -515 420 -436 383 -482 427 -482 454 0 30 1 31 165 87 135 46 159 57
131 59 -22 2 -82 -13 -168 -43 -124 -44 -135 -46 -152 -31 -9 9 -22 16 -28 16
-6 0 -13 14 -16 30 -8 38 -27 39 -27 2 0 -16 -8 -32 -20 -40 -18 -11 -29 -7
-90 28 -37 22 -81 40 -97 40 -23 0 -11 -10 64 -53 53 -30 93 -58 93 -67 0 -12
-238 -81 -1012 -296 -964 -267 -1014 -280 -1032 -263 -18 16 -15 27 94 335 62
176 115 325 117 332 3 6 -1 12 -9 12 -10 0 -50 -101 -130 -327 -92 -263 -119
-329 -134 -331 -11 -2 -28 -7 -39 -13 -17 -8 -131 50 -662 331 -418 222 -650
340 -665 338 -16 -2 191 -116 637 -353 640 -339 660 -351 660 -379 0 -27 -40
-55 -695 -481 -611 -399 -697 -451 -715 -441 -11 6 -21 11 -23 12 -1 0 -20
333 -42 740 -48 907 -48 904 -65 904 -10 0 -12 -13 -9 -52 9 -108 85 -1570 82
-1583 -2 -7 -128 209 -281 481 -227 403 -276 498 -266 510 7 9 10 32 6 61 l-5
46 194 266 c106 146 189 268 183 269 -16 6 -28 -8 -219 -272 l-185 -256 -42 0
c-41 0 -43 2 -300 265 -155 159 -265 265 -277 265 -12 0 46 -67 172 -197z
m4688 -2 c-2 -3 -93 -216 -202 -473 -191 -449 -200 -468 -225 -468 -15 0 -32
-7 -39 -15 -7 -8 -19 -15 -27 -15 -23 0 -1563 433 -1563 440 0 3 456 132 1013
286 904 250 1014 279 1029 266 10 -8 16 -17 14 -21z m581 -422 c263 -232 479
-429 481 -439 4 -24 38 -21 -742 -80 l-659 -50 -16 22 c-9 13 -15 28 -13 33 2
6 92 218 200 472 194 457 197 462 227 465 16 2 33 2 37 0 4 -1 222 -192 485
-423z m2285 -156 c-34 -65 -213 -408 -399 -763 l-339 -645 -34 0 c-33 0 -50
19 -466 521 -384 463 -431 524 -427 548 3 15 13 30 21 34 9 3 390 105 847 227
690 185 832 220 844 209 12 -11 5 -30 -47 -131z m902 11 c826 -157 756 -142
756 -160 0 -8 5 -22 10 -32 9 -14 -45 -122 -287 -577 -282 -530 -300 -560
-325 -560 -26 0 -57 49 -463 719 -336 556 -432 722 -424 733 6 7 14 13 17 13
3 0 326 -61 716 -136z m-330 -628 c392 -647 434 -720 423 -740 -7 -11 -12 -22
-13 -23 0 -3 -1590 -83 -1640 -83 -22 0 -34 7 -43 23 -11 20 25 93 381 772
217 413 397 756 402 763 4 7 19 12 32 10 20 -3 94 -118 458 -722z m-4698 407
c659 -185 774 -220 774 -235 0 -10 5 -26 10 -36 9 -14 -45 -122 -287 -577
-281 -528 -300 -560 -325 -560 -25 0 -61 57 -507 804 -265 442 -478 807 -475
812 3 5 12 9 21 9 8 0 364 -98 789 -217z m-906 180 c0 -12 -459 -1653 -464
-1660 0 0 -15 -3 -32 -5 -29 -3 -75 32 -473 356 l-442 358 3 35 c3 36 8 39
698 488 382 249 698 451 703 448 4 -2 7 -11 7 -20z m549 -800 c438 -734 478
-805 468 -827 -14 -28 36 -25 -809 -62 l-598 -27 -19 24 c-11 13 -21 29 -21
34 -1 6 104 383 232 838 199 709 235 827 250 825 11 -2 189 -291 497 -805z
m7248 555 c787 -95 933 -115 933 -128 0 -9 5 -21 11 -27 8 -8 -100 -210 -402
-752 -401 -718 -415 -741 -442 -739 -25 3 -75 80 -556 867 -460 749 -528 866
-518 882 6 10 19 17 27 15 8 -2 435 -55 947 -118z m-477 -798 c327 -533 526
-868 521 -873 -6 -6 -330 96 -845 267 -734 243 -836 279 -836 296 0 11 -5 28
-10 38 -9 14 44 121 282 567 161 303 297 556 301 563 5 7 20 12 33 10 20 -3
108 -140 554 -868z m-4073 710 l23 -28 -185 -893 c-218 -1054 -192 -941 -210
-937 -9 2 -253 392 -544 867 -552 900 -531 862 -504 910 2 4 1307 108 1368
109 22 1 36 -7 52 -28z m528 -545 c430 -519 431 -520 427 -561 l-4 -41 -625
-367 c-526 -308 -628 -365 -640 -354 -11 12 16 157 172 908 101 492 187 905
190 918 4 17 12 22 27 20 15 -2 160 -169 453 -523z m-1465 -465 c327 -533 526
-868 521 -873 -6 -6 -330 96 -845 267 -734 243 -836 279 -836 296 0 11 -5 28
-10 38 -9 14 44 121 282 567 161 303 297 556 301 563 5 7 20 12 33 10 20 -3
108 -140 554 -868z m-3291 7 c416 -338 441 -360 441 -390 l-1 -32 -755 -409
c-495 -268 -759 -405 -765 -399 -6 6 90 280 279 794 284 770 289 784 318 790
16 4 32 6 36 5 4 0 205 -162 447 -359z m7007 -65 c10 -15 -39 -97 -331 -548
l-343 -529 -39 -3 -40 -3 -469 492 c-421 442 -478 507 -460 526 3 4 1502 80
1596 82 63 1 77 -2 86 -17z m992 -284 c739 -244 812 -271 812 -290 0 -12 7
-29 16 -39 15 -16 8 -40 -89 -316 -104 -297 -105 -298 -136 -304 -31 -6 -62
19 -744 609 -392 338 -714 617 -717 620 -7 7 -25 12 858 -280z m-158 -362
c388 -335 706 -615 708 -623 2 -7 -3 -13 -11 -13 -28 0 -2033 130 -2097 136
-120 11 -134 -22 255 580 l343 529 38 5 c22 3 43 4 49 1 5 -3 327 -279 715
-615z m-2627 532 c12 -7 23 -13 25 -14 2 -1 102 -1846 102 -1895 0 -15 -7 -29
-15 -33 -10 -3 -246 189 -699 572 -663 559 -685 578 -685 612 l-1 35 623 367
c342 201 623 367 625 367 1 1 12 -5 25 -11z m552 -498 l468 -490 0 -50 0 -50
-413 -425 c-258 -267 -419 -425 -431 -425 -10 0 -19 1 -19 3 0 2 -22 424 -50
938 -27 514 -50 946 -50 962 0 16 5 27 14 27 7 0 224 -221 481 -490z m-3768
310 c11 -17 -28 -89 -340 -620 -340 -580 -353 -601 -380 -598 -25 3 -60 56
-371 566 -318 519 -343 564 -332 587 8 19 19 25 46 26 19 0 296 13 615 28 748
36 747 36 762 11z m972 -275 c776 -257 831 -277 831 -298 0 -13 4 -27 10 -33
6 -6 -121 -218 -360 -599 -342 -547 -371 -590 -396 -590 -27 0 -48 39 -486
884 -252 487 -456 891 -454 898 3 7 9 13 14 13 5 0 383 -124 841 -275z m-431
-635 c250 -481 456 -883 459 -892 3 -10 -1 -20 -9 -23 -8 -3 -305 89 -659 205
-1071 351 -979 319 -979 344 0 12 -5 27 -10 32 -8 8 96 193 342 613 325 555
355 602 377 599 22 -3 77 -104 479 -878z m-2076 809 c-2 -8 -159 -377 -350
-821 -345 -805 -346 -807 -376 -810 -29 -3 -59 25 -416 379 -384 382 -385 384
-382 421 l4 37 752 407 c413 224 756 406 761 404 6 -2 9 -10 7 -17z m423 -568
c231 -378 342 -568 335 -575 -5 -5 -10 -20 -10 -32 0 -21 -54 -40 -696 -254
-585 -195 -698 -230 -709 -219 -11 12 47 153 338 832 328 764 353 818 375 815
18 -2 87 -109 367 -567z m3722 -531 c407 -343 682 -582 682 -592 1 -16 -9 -18
-76 -18 -43 0 -469 -9 -948 -20 -1120 -25 -1137 -25 -1152 -1 -10 16 39 99
357 607 l369 589 38 6 c21 3 40 6 44 5 3 -1 312 -260 686 -576z m2799 265
c1230 -79 1146 -71 1142 -98 -2 -11 -291 -303 -667 -671 -654 -641 -665 -651
-700 -648 l-36 4 -398 718 c-359 649 -397 721 -385 739 7 12 18 21 24 21 6 0
466 -29 1020 -65z m-682 -706 c280 -506 395 -724 388 -731 -8 -8 -259 71 -845
266 -829 274 -835 276 -839 304 -4 26 36 69 410 455 398 410 415 427 451 427
l36 0 399 -721z m1871 547 c-2 -11 -62 -493 -131 -1071 -70 -577 -128 -1050
-128 -1051 -1 -1 -13 -4 -27 -8 -24 -5 -91 42 -545 380 l-519 385 0 46 0 46
665 652 c366 359 671 650 677 648 7 -3 11 -15 8 -27z m523 -827 c336 -603 471
-853 464 -862 -6 -7 -12 -23 -14 -36 -3 -21 -51 -40 -580 -228 -574 -203 -578
-204 -603 -186 -13 10 -23 25 -20 33 2 8 61 491 132 1072 74 615 132 1058 138
1058 6 0 223 -383 483 -851z m-7888 576 c7 -8 21 -15 31 -15 10 0 20 -8 23
-17 3 -10 59 -292 126 -627 110 -549 120 -610 106 -624 -18 -19 40 -45 -986
459 -417 205 -706 353 -708 362 -2 12 151 67 685 245 378 127 693 231 699 231
6 1 17 -6 24 -14z m773 -195 c1033 -339 977 -320 977 -338 -1 -25 -1357 -769
-1373 -753 -6 6 -19 11 -28 11 -10 0 -20 8 -23 18 -3 9 -59 291 -126 625 -116
580 -121 610 -104 628 9 10 21 19 26 19 4 0 297 -95 651 -210z m3300 -325 c17
-24 15 -31 -176 -552 -178 -486 -196 -528 -218 -531 -13 -2 -29 -8 -35 -13
-11 -9 -1746 1051 -1752 1071 -2 6 42 10 120 11 68 0 456 9 863 18 407 10 839
19 960 19 l220 1 18 -24z m-4652 -392 c457 -225 833 -414 836 -421 3 -7 4 -15
1 -17 -3 -3 -1804 -564 -1976 -616 -39 -11 -45 -11 -62 7 -19 19 -17 30 139
724 138 617 160 705 177 708 10 2 23 8 29 13 5 5 13 9 17 9 5 0 383 -183 839
-407z m5618 122 c457 -152 831 -279 831 -283 0 -4 -474 -133 -1053 -288 -994
-266 -1053 -280 -1070 -264 -17 16 -10 38 176 546 184 503 195 529 220 532 14
2 31 10 37 18 7 8 16 14 20 14 4 0 381 -124 839 -275z"/>
</g>
</svg>
