<?xml version="1.0" encoding="utf-8"?>
<svg xml:space="preserve" viewBox="0 0 100 100" y="0" x="0" xmlns="http://www.w3.org/2000/svg" id="Layer_1" version="1.1" xmlns:xlink="http://www.w3.org/1999/xlink" style="background-size:initial;background-repeat-y:initial;background-repeat-x:initial;background-position-y:initial;background-position-x:initial;background-origin:initial;background-image:initial;background-color:transparent;background-clip:initial;background-attachment:initial;animation-play-state:paused" >
  <g class="ldl-scale" style="transform-origin:50% 50%;transform:rotate(0deg) scale(1, 1);animation-play-state:paused" >
    <path fill="currentColor" d="M69.122 61.741c4.369 9.496 5.876 20.295 5.876 30.67h-6.241c-.516 0-.486.129-.581-.325-.23-1.105-.038-2.444-.092-3.581a81.451 81.451 0 0 0-.623-6.923c-1.041-7.809-3.068-16.358-7.968-22.724-1.761-2.288-4.05-4.328-6.881-5.129-1.637-.463-3.327-.335-5.007-.458-2.305-.169-4.618-.578-6.817-1.296-7.304-2.385-12.704-7.739-14.754-15.184a27.756 27.756 0 0 1-.741-3.678c-.065-.486.013-1.871-.372-2.042-.279-.124-.879.002-1.182.003l-1.952.005-6.918.018 11.879-20.696L28.413 7.5 40.4 28.134l1.68 2.892-10.152.027c.298 3.533 1.38 7.059 3.699 9.8 1.764 2.084 4.121 3.561 6.684 4.461 2.122.745 4.369 1.117 6.612 1.21 1.772.073 3.494.109 5.227.56 2.192.571 4.244 1.609 6.063 2.95 4 2.948 6.854 7.241 8.909 11.707 3.789 8.236-2.079-4.518 0 0z" id="XMLID_27_" style="animation-play-state:paused" ></path>
  <g style="animation-play-state:paused" >
    <path fill="currentColor" d="M59.067 44.764a23.246 23.246 0 0 1 4.874 3.237c.274.235.797.911 1.135 1.033.339.122.828-.355 1.17-.609a19.12 19.12 0 0 0 1.461-1.203 20.938 20.938 0 0 0 4.718-6.322 24 24 0 0 0 1.694-4.686c.229-.915.409-1.842.544-2.775.054-.372.016-2.158.269-2.369.21-.176 1.353.004 1.614.004l3.185.008 5.4.014L73.252 10.4l-1.665-2.901L59.6 28.133l-1.68 2.892 10.153.027c-.501 5.95-3.428 11.224-9.006 13.712 2.183 1.071 4.315-1.925 0 0z" id="XMLID_32_" style="animation-play-state:paused" ></path>
    <path fill="currentColor" d="M30.878 61.741c-4.368 9.496-5.875 20.295-5.875 30.67h4.995c.301 0 1.581.201 1.826 0 .124-.101.008-1.18.012-1.382a82.422 82.422 0 0 1 .198-4.485c.53-7.41 1.939-14.986 5.026-21.785 1.375-3.028 3.138-6.005 5.611-8.271a31.538 31.538 0 0 1-3.989-1.124 29.566 29.566 0 0 1-1.884-.742c-.267-.116-.62-.37-.912-.415-.222-.227-.387-.196-.494.094-.098.121-.194.243-.289.366-1.691 2.174-3.076 4.576-4.225 7.074-3.788 8.236 1.369-2.977 0 0z" id="XMLID_33_" style="animation-play-state:paused" ></path>
  </g>
  </g>
</svg>