<svg version="1.0" xmlns="http://www.w3.org/2000/svg"
 width="1em" height="1em" fill="none"
 viewBox="0 0 481.000000 481.000000"
 preserveAspectRatio="xMidYMid meet">
<title>
  values icon
</title>
<g transform="translate(0.000000,481.000000) scale(0.100000,-0.100000)"
fill="currentColor" stroke="none">
<path d="M2205 4793 c-629 -55 -1216 -354 -1623 -828 -475 -553 -675 -1293
-541 -2005 76 -406 262 -795 532 -1115 546 -648 1421 -959 2262 -804 542 99
1042 389 1392 803 546 649 713 1515 447 2314 -251 755 -857 1335 -1620 1551
-130 37 -289 66 -433 81 -96 9 -324 11 -416 3z m410 -413 c291 -34 589 -136
832 -288 254 -157 487 -390 643 -641 400 -644 400 -1458 0 -2102 -79 -128
-167 -237 -284 -355 -963 -962 -2578 -698 -3189 522 -457 911 -136 2035 736
2576 234 146 512 245 792 282 122 17 349 19 470 6z"/>
<path d="M1442 3140 c-152 -36 -205 -240 -90 -347 59 -55 19 -53 1043 -53
1037 0 971 -4 1038 59 100 92 78 253 -43 321 l-45 25 -935 2 c-514 0 -950 -2
-968 -7z"/>
<path d="M1429 2046 c-91 -32 -139 -101 -139 -197 0 -68 29 -122 88 -164 l44
-30 946 -3 c671 -2 958 0 985 8 99 29 161 139 136 242 -16 68 -76 130 -141
146 -71 18 -1869 16 -1919 -2z"/>
</g>
</svg>
